<?xml version="1.0" encoding="utf-8"?>
<!-- Generator: Adobe Illustrator 16.0.0, SVG Export Plug-In . SVG Version: 6.00 Build 0)  -->
<!DOCTYPE svg PUBLIC "-//W3C//DTD SVG 1.1//EN" "http://www.w3.org/Graphics/SVG/1.1/DTD/svg11.dtd">
<svg version="1.1" id="B_x26_W" xmlns="http://www.w3.org/2000/svg" xmlns:xlink="http://www.w3.org/1999/xlink" x="0px" y="0px"
	 width="48.375px" height="48.867px" viewBox="0 0 48.375 48.867" enable-background="new 0 0 48.375 48.867" xml:space="preserve">
<g>
	<path fill="#231F20" d="M46.728,16.253c0,0,0,0.01,0,0.02l-5.79,15.83h-0.71l5.78-15.85H46.728z"/>
</g>
<g id="W1_1_">
	<polygon fill="#231F20" points="24.587,32.573 24.547,32.593 24.538,32.573 	"/>
</g>
<g id="w-small-1_1_">
	<polygon fill="#231F20" points="42.588,16.253 36.817,32.113 36.107,32.113 41.878,16.253 	"/>
</g>
<g id="w-small-2_1_">
	<polygon fill="#231F20" points="44.018,16.253 38.188,32.113 37.478,32.113 43.258,16.253 	"/>
</g>
<g id="w-small-3_3_">
	<polygon fill="#231F20" points="45.338,16.253 39.567,32.113 38.857,32.113 44.628,16.253 	"/>
</g>
<g id="w-small-3_2_">
	<polygon fill="#231F20" points="47.957,16.253 42.197,32.083 41.487,32.083 47.237,16.253 	"/>
</g>
<g id="w-small-11_1_">
	<polygon fill="#231F20" points="38.857,23.023 38.478,23.953 35.678,16.253 36.397,16.253 	"/>
</g>
<g id="w-small-12_1_">
	<polygon fill="#231F20" points="38.147,24.873 37.798,25.843 34.308,16.253 35.008,16.253 	"/>
</g>
<g id="w-small-13_1_">
	<polygon fill="#231F20" points="37.478,26.803 37.107,27.733 32.907,16.253 33.638,16.253 	"/>
</g>
<g id="w-small-14_1_">
	<polygon fill="#231F20" points="36.777,28.643 36.428,29.613 31.548,16.253 32.268,16.253 	"/>
</g>
<polygon fill="#231F20" points="31.527,16.253 31.298,24.903 29.077,32.573 24.538,32.573 24.527,32.543 23.908,30.843 
	23.837,30.653 13.098,1.133 19.047,1.133 26.827,22.513 29.107,16.283 29.918,16.253 "/>
</svg>
