<?xml version="1.0" encoding="utf-8"?>
<!-- Generator: Adobe Illustrator 16.0.0, SVG Export Plug-In . SVG Version: 6.00 Build 0)  -->
<!DOCTYPE svg PUBLIC "-//W3C//DTD SVG 1.1//EN" "http://www.w3.org/Graphics/SVG/1.1/DTD/svg11.dtd">
<svg version="1.1" id="B_x26_W" xmlns="http://www.w3.org/2000/svg" xmlns:xlink="http://www.w3.org/1999/xlink" x="0px" y="0px"
	 width="48.375px" height="48.867px" viewBox="0 0 48.375 48.867" enable-background="new 0 0 48.375 48.867" xml:space="preserve">
<g>
	<path fill="#E6EAEB" d="M46.729,16.253c0,0,0,0.01,0,0.02l-5.791,15.831h-0.709l5.779-15.851H46.729z"/>
</g>
<g id="W1_1_">
	<polygon fill="#E6EAEB" points="24.587,32.572 24.547,32.594 24.538,32.572 	"/>
</g>
<g id="w-small-1_1_">
	<polygon fill="#E6EAEB" points="42.588,16.253 36.816,32.113 36.107,32.113 41.878,16.253 	"/>
</g>
<g id="w-small-2_1_">
	<polygon fill="#E6EAEB" points="44.018,16.253 38.188,32.113 37.479,32.113 43.258,16.253 	"/>
</g>
<g id="w-small-3_3_">
	<polygon fill="#E6EAEB" points="45.338,16.253 39.566,32.113 38.857,32.113 44.628,16.253 	"/>
</g>
<g id="w-small-3_2_">
	<polygon fill="#E6EAEB" points="47.957,16.253 42.197,32.083 41.486,32.083 47.236,16.253 	"/>
</g>
<g id="w-small-11_1_">
	<polygon fill="#E6EAEB" points="38.857,23.023 38.479,23.953 35.678,16.253 36.396,16.253 	"/>
</g>
<g id="w-small-12_1_">
	<polygon fill="#E6EAEB" points="38.146,24.873 37.798,25.844 34.309,16.253 35.008,16.253 	"/>
</g>
<g id="w-small-13_1_">
	<polygon fill="#E6EAEB" points="37.479,26.803 37.107,27.732 32.907,16.253 33.639,16.253 	"/>
</g>
<g id="w-small-14_1_">
	<polygon fill="#E6EAEB" points="36.777,28.643 36.428,29.613 31.548,16.253 32.268,16.253 	"/>
</g>
<polygon fill="#E6EAEB" points="31.527,16.253 31.298,24.903 29.077,32.572 24.538,32.572 24.527,32.543 23.908,30.844 
	23.837,30.652 13.098,1.133 19.047,1.133 26.827,22.513 29.107,16.283 29.918,16.253 "/>
</svg>
