<?xml version="1.0" encoding="utf-8"?>
<!-- Generator: Adobe Illustrator 16.0.0, SVG Export Plug-In . SVG Version: 6.00 Build 0)  -->
<!DOCTYPE svg PUBLIC "-//W3C//DTD SVG 1.1//EN" "http://www.w3.org/Graphics/SVG/1.1/DTD/svg11.dtd">
<svg version="1.1" id="B_x26_W" xmlns="http://www.w3.org/2000/svg" xmlns:xlink="http://www.w3.org/1999/xlink" x="0px" y="0px"
	 width="147.002px" height="66.137px" viewBox="0 0 147.002 66.137" enable-background="new 0 0 147.002 66.137"
	 xml:space="preserve">
<g>
	<path d="M44.144,34.764h-0.67l5.539-15.214c0,0.6,0.442-0.021,0.462,0.571"/>
</g>
<g id="W1_1_">
	<polygon points="33.257,32.717 28.481,35.23 17.291,4.484 22.98,4.484 	"/>
</g>
<g id="W2_1_">
	<polygon points="27.761,33.51 32.743,35.452 34.933,27.877 35.152,19.55 32.838,19.636 	"/>
</g>
<g id="w-small-1_1_">
	<polygon points="45.346,18.793 39.531,34.768 40.209,34.768 45.996,18.867 	"/>
</g>
<g id="w-small-2_1_">
	<path d="M40.845,34.768h0.677l5.737-15.604c0.028-0.689-0.646,0.392-0.626-0.3L40.845,34.768z"/>
</g>
<g id="w-small-3_3_">
	<path d="M42.157,34.768h0.678l5.553-15.257c0.017-0.681-0.555,0.272-0.528-0.409L42.157,34.768z"/>
</g>
<g id="w-small-3_2_">
	<path d="M44.674,35.096h0.678l5.906-16.227c-0.055-0.496-0.102-0.992-0.137-1.487L44.674,35.096z"/>
</g>
<g id="w-small-11_1_">
	<path d="M42.157,26.083l-2.384-6.572c-0.213,0.027-0.456,0-0.672,0.039l2.702,7.422L42.157,26.083z"/>
</g>
<g id="w-small-12_1_">
	<path d="M41.486,27.846l-3.036-8.315c-0.21,0.042-0.442-0.005-0.652,0.038l3.35,9.207L41.486,27.846z"/>
</g>
<g id="w-small-13_1_">
	<path d="M40.845,29.691l-3.698-10.16c-0.213,0.042-0.48,0.007-0.69,0.038l4.035,11.013L40.845,29.691z"/>
</g>
<g id="w-small-14_1_">
	<path d="M40.174,31.455l-4.351-11.943c-0.225,0.023-0.454,0.038-0.671,0.039l4.683,12.833L40.174,31.455z"/>
</g>
<g>
	<path d="M52.188,52.183H3.78V3.332h48.408V52.183z M5.78,50.183h44.408V5.332H5.78V50.183z"/>
</g>
<g>
	<rect x="19.197" y="4.406" width="2" height="46.704"/>
</g>
<g>
	<rect x="4.629" y="34.249" width="46.41" height="2"/>
</g>
<g>
	<rect x="4.481" y="18.534" width="46.558" height="2"/>
</g>
<g>
	<rect x="34.912" y="3.966" width="2" height="47.144"/>
</g>
<g>
	<g>
		<path d="M70.96,27.083l-0.109-2.96c-0.55,0.932-1.432,1.659-2.646,2.181c-1.214,0.522-2.611,0.782-4.191,0.782
			c-1.581,0-3.007-0.327-4.277-0.981c-1.271-0.652-2.36-1.528-3.265-2.63c-0.905-1.099-1.598-2.363-2.078-3.795
			c-0.481-1.432-0.722-2.913-0.722-4.444c0-1.617,0.24-3.146,0.722-4.574c0.48-1.434,1.19-2.683,2.13-3.745
			c0.938-1.065,2.107-1.903,3.505-2.516c1.396-0.607,3.023-0.916,4.879-0.916c1.351,0,2.616,0.189,3.796,0.566
			c1.18,0.377,2.211,0.898,3.093,1.563c0.881,0.666,1.592,1.462,2.13,2.383c0.538,0.921,0.853,1.937,0.945,3.046h-4.82
			c-0.069-0.513-0.253-0.993-0.551-1.448c-0.299-0.455-0.678-0.849-1.137-1.182s-0.993-0.602-1.602-0.802
			c-0.607-0.197-1.233-0.299-1.876-0.299c-1.928,0-3.472,0.694-4.631,2.081c-1.159,1.387-1.738,3.401-1.738,6.042
			c0,0.91,0.12,1.825,0.361,2.746c0.241,0.921,0.62,1.753,1.137,2.497s1.177,1.348,1.981,1.814c0.804,0.466,1.758,0.696,2.86,0.696
			c0.78,0,1.51-0.134,2.188-0.397c0.678-0.269,1.27-0.632,1.775-1.102c0.505-0.466,0.901-1.004,1.188-1.611
			c0.287-0.61,0.431-1.262,0.431-1.947h-5.051v-3.695h9.518v12.647H70.96L70.96,27.083z"/>
	</g>
	<g>
		<path d="M90.813,27.055V21.18c0-1.099-0.252-1.884-0.756-2.354c-0.504-0.472-1.443-0.704-2.817-0.704h-5.085v8.933h-4.639V4.241
			h11.578c1.053,0,2.01,0.166,2.867,0.495c0.855,0.332,1.6,0.789,2.219,1.372c0.615,0.583,1.094,1.281,1.426,2.096
			c0.332,0.813,0.498,1.688,0.498,2.625c0,1.232-0.293,2.328-0.877,3.273c-0.584,0.949-1.427,1.618-2.524,2.007
			c1.008,0.321,1.724,0.814,2.147,1.479c0.424,0.666,0.635,1.664,0.635,2.994v6.47L90.813,27.055L90.813,27.055z M82.153,8.192
			v6.047h5.979c1.282,0,2.188-0.281,2.715-0.854c0.526-0.569,0.791-1.287,0.791-2.152c0-0.888-0.259-1.614-0.773-2.187
			c-0.516-0.569-1.367-0.854-2.559-0.854H82.153z"/>
	</g>
	<g>
		<path d="M98.371,27.055V4.241h4.776v22.813L98.371,27.055L98.371,27.055z"/>
	</g>
	<g>
		<path d="M104.59,27.055V4.241h8.813c1.533,0,2.949,0.258,4.254,0.771c1.304,0.516,2.418,1.254,3.344,2.216s1.652,2.13,2.178,3.504
			c0.526,1.375,0.789,2.935,0.789,4.676c0,1.738-0.234,3.324-0.703,4.759c-0.469,1.432-1.138,2.654-2.006,3.676
			c-0.869,1.02-1.908,1.81-3.121,2.371c-1.213,0.561-2.55,0.842-4.013,0.842H104.59z M113.181,23.173
			c2.084,0,3.596-0.647,4.534-1.941s1.409-3.232,1.409-5.821c0-1.283-0.115-2.385-0.344-3.301c-0.229-0.916-0.602-1.667-1.117-2.25
			c-0.516-0.584-1.174-1.008-1.977-1.271c-0.804-0.263-1.774-0.396-2.92-0.396h-3.539v14.98H113.181L113.181,23.173z"/>
	</g>
	<g>
		<path d="M71.332,51.29l-3.539-14.846L64.186,51.29h-4.467L53.26,28.476h5.085L62.09,43.25l3.16-14.774h5.017l3.471,14.774
			l3.71-14.774h4.879L75.937,51.29H71.332z"/>
	</g>
	<g>
		<path d="M92.325,52.08c-3.527,0-6.236-1.031-8.126-3.095c-1.89-2.061-2.835-5.024-2.835-8.896c0-1.924,0.24-3.653,0.723-5.188
			c0.48-1.531,1.189-2.834,2.13-3.896c0.938-1.065,2.084-1.878,3.437-2.439c1.354-0.561,2.908-0.842,4.675-0.842
			c1.737,0,3.293,0.281,4.653,0.842c1.363,0.563,2.502,1.38,3.418,2.457s1.615,2.391,2.099,3.937s0.724,3.293,0.724,5.237
			c0,3.94-0.936,6.906-2.802,8.899C98.55,51.084,95.853,52.08,92.325,52.08z M92.325,47.992c0.848,0,1.648-0.155,2.404-0.467
			c0.756-0.309,1.414-0.775,1.977-1.406c0.561-0.633,1.002-1.438,1.322-2.425c0.32-0.981,0.479-2.15,0.479-3.504
			c0-2.703-0.525-4.753-1.578-6.147c-1.056-1.397-2.591-2.099-4.604-2.099c-2.017,0-3.563,0.699-4.64,2.099
			c-1.076,1.396-1.615,3.448-1.615,6.147c0,2.703,0.545,4.682,1.634,5.93C88.791,47.368,90.333,47.992,92.325,47.992z"/>
	</g>
	<g>
		<path d="M117.817,51.29v-5.875c0-1.102-0.252-1.887-0.756-2.354s-1.442-0.704-2.816-0.704h-5.085v8.936h-4.64V28.476h11.58
			c1.053,0,2.01,0.166,2.869,0.498c0.855,0.332,1.598,0.789,2.215,1.372c0.619,0.583,1.094,1.281,1.426,2.093
			c0.332,0.813,0.498,1.688,0.498,2.625c0,1.235-0.291,2.328-0.875,3.276c-0.584,0.949-1.426,1.618-2.525,2.007
			c1.008,0.321,1.725,0.814,2.146,1.479c0.424,0.666,0.637,1.661,0.637,2.991v6.473H117.817z M109.16,32.427v6.047h5.979
			c1.279,0,2.187-0.284,2.713-0.854c0.525-0.57,0.791-1.287,0.791-2.152c0-0.888-0.258-1.617-0.772-2.188
			c-0.517-0.566-1.369-0.854-2.56-0.854L109.16,32.427L109.16,32.427z"/>
	</g>
	<g>
		<path d="M138.228,51.29l-6.769-10.273l-2.543,2.508v7.768h-4.707V28.476h4.707v9.277l8.728-9.277h6.188l-9.002,9.002l9.208,13.813
			L138.228,51.29L138.228,51.29z"/>
	</g>
</g>
<g enable-background="new    ">
	<path d="M7.516,62.315c-0.396,0.363-0.976,0.56-1.656,0.56H3.614v-6.029h2.245c0.681,0,1.26,0.194,1.656,0.559
		c0.681,0.627,0.644,1.551,0.644,2.39C8.16,60.629,8.196,61.688,7.516,62.315z M7.028,57.86c-0.34-0.321-0.782-0.438-1.288-0.438
		H4.313v4.877H5.74c0.506,0,0.948-0.118,1.288-0.439c0.451-0.433,0.433-1.33,0.433-2.065C7.46,59.054,7.479,58.291,7.028,57.86z"/>
	<path d="M12.615,62.873v-6.029h4.067v0.576h-3.368v2.125h2.871v0.576h-2.871v2.176h3.368v0.576H12.615z"/>
	<path d="M22.628,62.924c-0.984,0-1.628-0.229-2.245-0.796l0.479-0.44c0.543,0.5,1.049,0.66,1.785,0.66
		c0.957,0,1.546-0.414,1.546-1.117c0-0.313-0.102-0.584-0.313-0.754s-0.377-0.221-0.855-0.288l-0.764-0.109
		c-0.516-0.076-0.92-0.229-1.206-0.457c-0.331-0.271-0.497-0.645-0.497-1.127c0-1.023,0.801-1.701,2.098-1.701
		c0.837,0,1.389,0.193,1.951,0.66l-0.451,0.415c-0.405-0.34-0.837-0.518-1.527-0.518c-0.874,0-1.38,0.449-1.38,1.117
		c0,0.297,0.092,0.534,0.294,0.695c0.202,0.16,0.543,0.278,0.883,0.33l0.718,0.102c0.616,0.084,0.92,0.203,1.196,0.424
		c0.359,0.279,0.552,0.693,0.552,1.193C24.892,62.272,23.99,62.924,22.628,62.924z"/>
	<path d="M29.163,62.873v-6.029h0.699v6.029H29.163z"/>
	<path d="M38.356,62.23c-0.46,0.457-1.077,0.694-1.749,0.694c-0.644,0-1.233-0.221-1.674-0.627c-0.617-0.566-0.617-1.16-0.617-2.438
		c0-1.277,0-1.872,0.617-2.438c0.441-0.407,1.021-0.627,1.674-0.627c1.251,0,2.098,0.744,2.291,1.803H38.2
		c-0.184-0.762-0.773-1.227-1.592-1.227c-0.432,0-0.846,0.159-1.132,0.432c-0.414,0.389-0.46,0.795-0.46,2.058
		s0.046,1.678,0.46,2.066c0.286,0.271,0.7,0.423,1.132,0.423c0.479,0,0.938-0.178,1.242-0.516c0.267-0.297,0.368-0.627,0.368-1.095
		v-0.456h-1.61v-0.566h2.31v0.957C38.917,61.365,38.761,61.832,38.356,62.23z"/>
	<path d="M47.532,62.873l-3.478-4.836v4.836h-0.699v-6.029h0.663l3.478,4.818v-4.818h0.699v6.029H47.532z"/>
	<path d="M62.35,62.873l-0.589-0.66c-0.267,0.229-0.883,0.711-1.932,0.711c-1.27,0-2.07-0.703-2.07-1.753
		c0-0.906,0.699-1.363,1.417-1.804c-0.322-0.355-0.708-0.771-0.708-1.313c0-0.721,0.607-1.262,1.444-1.262
		c0.819,0,1.426,0.551,1.426,1.27c0,0.482-0.313,0.813-0.727,1.076c0,0-0.332,0.203-0.488,0.305l1.674,1.854
		c0.267-0.372,0.359-0.702,0.368-1.38h0.663c-0.009,0.762-0.184,1.38-0.607,1.846l1.003,1.109L62.35,62.873L62.35,62.873z
		 M59.562,59.774c-0.561,0.355-1.123,0.694-1.123,1.381c0,0.72,0.571,1.202,1.38,1.202c0.488,0,0.984-0.118,1.546-0.585
		L59.562,59.774z M59.911,57.344c-0.451,0-0.754,0.296-0.754,0.702c0,0.279,0.157,0.509,0.589,0.991
		c0.11-0.068,0.35-0.222,0.35-0.222c0.304-0.194,0.589-0.405,0.589-0.754C60.684,57.656,60.353,57.344,59.911,57.344z"/>
	<path d="M77.618,62.873v-4.582l-1.795,3.634h-0.598l-1.823-3.634v4.582h-0.699v-6.029h0.699l2.134,4.276l2.08-4.276h0.698v6.029
		H77.618z"/>
	<path d="M86.84,62.873l-0.524-1.363h-2.86l-0.524,1.363h-0.744l2.41-6.029h0.588l2.401,6.029H86.84z M84.897,57.767l-1.232,3.186
		h2.447L84.897,57.767z"/>
	<path d="M95.216,62.873l-1.49-2.677h-1.574v2.677h-0.698v-6.029h2.512c1.142,0,1.94,0.635,1.94,1.676
		c0,0.881-0.579,1.457-1.426,1.618l1.556,2.735H95.216z M93.899,57.42h-1.748v2.209h1.748c0.764,0,1.307-0.363,1.307-1.101
		C95.206,57.792,94.663,57.42,93.899,57.42z"/>
	<path d="M104.372,62.873l-1.996-3.209l-1.381,1.522v1.687h-0.699v-6.029h0.699v3.463l3.055-3.463h0.855l-2.061,2.328l2.354,3.701
		H104.372z"/>
	<path d="M109.086,62.873v-6.029h4.067v0.576h-3.368v2.125h2.87v0.576h-2.87v2.176h3.368v0.576H109.086z"/>
	<path d="M119.338,57.42v5.453h-0.698V57.42h-1.896v-0.576h4.49v0.576H119.338z"/>
	<path d="M125.265,62.873v-6.029h0.699v6.029H125.265z"/>
	<path d="M134.845,62.873l-3.478-4.836v4.836h-0.699v-6.029h0.663l3.479,4.818v-4.818h0.698v6.029H134.845z"/>
	<path d="M144.003,62.23c-0.461,0.457-1.076,0.694-1.748,0.694c-0.645,0-1.232-0.221-1.675-0.627
		c-0.616-0.566-0.616-1.16-0.616-2.438c0-1.277,0-1.872,0.616-2.438c0.44-0.407,1.021-0.627,1.675-0.627
		c1.251,0,2.098,0.744,2.291,1.803h-0.699c-0.185-0.762-0.772-1.227-1.592-1.227c-0.434,0-0.847,0.159-1.133,0.432
		c-0.414,0.389-0.459,0.795-0.459,2.058s0.045,1.678,0.459,2.066c0.286,0.271,0.699,0.423,1.133,0.423
		c0.479,0,0.938-0.178,1.242-0.516c0.268-0.297,0.367-0.627,0.367-1.095v-0.456h-1.609v-0.566h2.309v0.957
		C144.563,61.365,144.407,61.832,144.003,62.23z"/>
</g>
<g>
	<path d="M15.731,4.895c-0.659,0-1.307,0.062-1.933,0.169V4.895H15.731z"/>
</g>
</svg>
